<svg xmlns="http://www.w3.org/2000/svg" width="692.916" height="355.312" viewBox="0 0 692.916 355.312">
  <g id="stardust" transform="translate(-6.332 -317.356)">
    <g id="Grupo_93" data-name="Grupo 93" transform="translate(-173 -224)">
      <circle id="Elipse_4" data-name="Elipse 4" cx="1.5" cy="1.5" r="1.5" transform="translate(273 603)" fill="#fff"/>
      <circle id="Elipse_5" data-name="Elipse 5" cx="1.5" cy="1.5" r="1.5" transform="translate(273 603)" fill="#fff"/>
    </g>
    <g id="Grupo_108" data-name="Grupo 108" transform="translate(-253 -137)">
      <circle id="Elipse_4-2" data-name="Elipse 4" cx="1" cy="1" r="1" transform="translate(273 603)" fill="#fff"/>
      <circle id="Elipse_5-2" data-name="Elipse 5" cx="1" cy="1" r="1" transform="translate(273 603)" fill="#fff"/>
    </g>
    <g id="Grupo_586" data-name="Grupo 586" transform="translate(-254 -224)">
      <circle id="Elipse_4-3" data-name="Elipse 4" cx="1" cy="1" r="1" transform="translate(273 603)" fill="#fff"/>
      <circle id="Elipse_5-3" data-name="Elipse 5" cx="1" cy="1" r="1" transform="translate(273 603)" fill="#fff"/>
    </g>
    <g id="Grupo_111" data-name="Grupo 111" transform="translate(-15 21)">
      <circle id="Elipse_4-4" data-name="Elipse 4" cx="0.5" cy="0.5" r="0.5" transform="translate(273 603)" fill="#fff"/>
      <circle id="Elipse_5-4" data-name="Elipse 5" cx="0.5" cy="0.5" r="0.5" transform="translate(273 603)" fill="#fff"/>
    </g>
    <g id="Grupo_575" data-name="Grupo 575" transform="translate(162 -78)">
      <circle id="Elipse_4-5" data-name="Elipse 4" cx="0.5" cy="0.5" r="0.5" transform="translate(273 603)" fill="#fff"/>
      <circle id="Elipse_5-5" data-name="Elipse 5" cx="0.5" cy="0.5" r="0.5" transform="translate(273 603)" fill="#fff"/>
    </g>
    <g id="Grupo_120" data-name="Grupo 120" transform="translate(392.58 487) rotate(180)">
      <circle id="Elipse_4-6" data-name="Elipse 4" cx="0.5" cy="0.5" r="0.5" fill="#fff"/>
      <circle id="Elipse_5-6" data-name="Elipse 5" cx="0.5" cy="0.5" r="0.5" fill="#fff"/>
    </g>
    <g id="Grupo_574" data-name="Grupo 574" transform="translate(411.58 577.5) rotate(180)">
      <circle id="Elipse_4-7" data-name="Elipse 4" cx="0.5" cy="0.5" r="0.5" fill="#fff"/>
      <circle id="Elipse_5-7" data-name="Elipse 5" cx="0.5" cy="0.5" r="0.5" fill="#fff"/>
    </g>
    <g id="Grupo_576" data-name="Grupo 576" transform="translate(588.58 478.5) rotate(180)">
      <circle id="Elipse_4-8" data-name="Elipse 4" cx="0.5" cy="0.5" r="0.5" fill="#fff"/>
      <circle id="Elipse_5-8" data-name="Elipse 5" cx="0.5" cy="0.5" r="0.5" fill="#fff"/>
    </g>
    <g id="Grupo_121" data-name="Grupo 121" transform="translate(144.58 581) rotate(180)">
      <circle id="Elipse_4-9" data-name="Elipse 4" cx="0.5" cy="0.5" r="0.5" fill="#fff"/>
      <circle id="Elipse_5-9" data-name="Elipse 5" cx="0.5" cy="0.5" r="0.5" fill="#fff"/>
    </g>
    <g id="Grupo_583" data-name="Grupo 583" transform="translate(178.58 640.5) rotate(180)">
      <circle id="Elipse_4-10" data-name="Elipse 4" cx="0.5" cy="0.5" r="0.5" fill="#fff"/>
      <circle id="Elipse_5-10" data-name="Elipse 5" cx="0.5" cy="0.5" r="0.5" fill="#fff"/>
    </g>
    <g id="Grupo_578" data-name="Grupo 578" transform="translate(343.58 493) rotate(180)">
      <circle id="Elipse_4-11" data-name="Elipse 4" cx="0.5" cy="0.5" r="0.5" fill="#fff"/>
      <circle id="Elipse_5-11" data-name="Elipse 5" cx="0.5" cy="0.5" r="0.5" fill="#fff"/>
    </g>
    <g id="Grupo_122" data-name="Grupo 122" transform="translate(296.58 526) rotate(180)">
      <circle id="Elipse_4-12" data-name="Elipse 4" cx="1" cy="1" r="1" fill="#fff"/>
      <circle id="Elipse_5-12" data-name="Elipse 5" cx="1" cy="1" r="1" fill="#fff"/>
    </g>
    <g id="Grupo_123" data-name="Grupo 123" transform="translate(233.58 489) rotate(180)">
      <circle id="Elipse_4-13" data-name="Elipse 4" cx="1.5" cy="1.5" r="1.5" fill="#fff"/>
      <circle id="Elipse_5-13" data-name="Elipse 5" cx="1.5" cy="1.5" r="1.5" fill="#fff"/>
    </g>
    <g id="Grupo_124" data-name="Grupo 124" transform="translate(439.58 660) rotate(180)">
      <circle id="Elipse_4-14" data-name="Elipse 4" cx="1" cy="1" r="1" fill="#fff"/>
      <circle id="Elipse_5-14" data-name="Elipse 5" cx="1" cy="1" r="1" fill="#fff"/>
    </g>
    <g id="Grupo_580" data-name="Grupo 580" transform="translate(112.58 469) rotate(180)">
      <circle id="Elipse_4-15" data-name="Elipse 4" cx="1" cy="1" r="1" fill="#fff"/>
      <circle id="Elipse_5-15" data-name="Elipse 5" cx="1" cy="1" r="1" fill="#fff"/>
    </g>
    <g id="Grupo_587" data-name="Grupo 587" transform="translate(77.58 593) rotate(180)">
      <circle id="Elipse_4-16" data-name="Elipse 4" cx="1" cy="1" r="1" fill="#fff"/>
      <circle id="Elipse_5-16" data-name="Elipse 5" cx="1" cy="1" r="1" fill="#fff"/>
    </g>
    <g id="Grupo_571" data-name="Grupo 571" transform="matrix(0.588, 0.809, -0.809, 0.588, 188.212, 433.722)">
      <circle id="Elipse_4-17" data-name="Elipse 4" cx="1" cy="1" r="1" fill="#fff"/>
      <circle id="Elipse_5-17" data-name="Elipse 5" cx="1" cy="1" r="1" fill="#fff"/>
    </g>
    <g id="Grupo_125" data-name="Grupo 125" transform="translate(455.58 645) rotate(180)">
      <circle id="Elipse_4-18" data-name="Elipse 4" cx="1" cy="1" r="1" fill="#fff"/>
      <circle id="Elipse_5-18" data-name="Elipse 5" cx="1" cy="1" r="1" fill="#fff"/>
    </g>
    <g id="Grupo_572" data-name="Grupo 572" transform="matrix(0.588, 0.809, -0.809, 0.588, 166.672, 429.595)">
      <circle id="Elipse_4-19" data-name="Elipse 4" cx="1" cy="1" r="1" fill="#fff"/>
      <circle id="Elipse_5-19" data-name="Elipse 5" cx="1" cy="1" r="1" fill="#fff"/>
    </g>
    <g id="Grupo_126" data-name="Grupo 126" transform="translate(484.58 640) rotate(180)">
      <circle id="Elipse_4-20" data-name="Elipse 4" cx="0.5" cy="0.5" r="0.5" fill="#fff"/>
      <circle id="Elipse_5-20" data-name="Elipse 5" cx="0.5" cy="0.5" r="0.5" fill="#fff"/>
    </g>
    <g id="Grupo_579" data-name="Grupo 579" transform="translate(686.58 653) rotate(180)">
      <circle id="Elipse_4-21" data-name="Elipse 4" cx="0.5" cy="0.5" r="0.5" fill="#fff"/>
      <circle id="Elipse_5-21" data-name="Elipse 5" cx="0.5" cy="0.5" r="0.5" fill="#fff"/>
    </g>
    <g id="Grupo_573" data-name="Grupo 573" transform="matrix(0.588, 0.809, -0.809, 0.588, 145.581, 409.072)">
      <circle id="Elipse_4-22" data-name="Elipse 4" cx="0.5" cy="0.5" r="0.5" fill="#fff"/>
      <circle id="Elipse_5-22" data-name="Elipse 5" cx="0.5" cy="0.5" r="0.5" fill="#fff"/>
    </g>
    <g id="Grupo_585" data-name="Grupo 585" transform="matrix(0.588, 0.809, -0.809, 0.588, 57.992, 342.072)">
      <circle id="Elipse_4-23" data-name="Elipse 4" cx="0.5" cy="0.5" r="0.5" fill="#fff"/>
      <circle id="Elipse_5-23" data-name="Elipse 5" cx="0.5" cy="0.5" r="0.5" fill="#fff"/>
    </g>
    <g id="Grupo_581" data-name="Grupo 581" transform="matrix(0.588, 0.809, -0.809, 0.588, 113.389, 476.802)">
      <circle id="Elipse_4-24" data-name="Elipse 4" cx="0.5" cy="0.5" r="0.5" fill="#fff"/>
      <circle id="Elipse_5-24" data-name="Elipse 5" cx="0.5" cy="0.5" r="0.5" fill="#fff"/>
    </g>
    <g id="Grupo_127" data-name="Grupo 127" transform="translate(322.58 535) rotate(180)">
      <circle id="Elipse_4-25" data-name="Elipse 4" cx="0.5" cy="0.5" r="0.5" fill="#fff"/>
      <circle id="Elipse_5-25" data-name="Elipse 5" cx="0.5" cy="0.5" r="0.5" fill="#fff"/>
    </g>
    <g id="Grupo_128" data-name="Grupo 128" transform="translate(218.08 498) rotate(180)">
      <circle id="Elipse_4-26" data-name="Elipse 4" cx="0.25" cy="0.25" r="0.25" fill="#fff"/>
      <circle id="Elipse_5-26" data-name="Elipse 5" cx="0.25" cy="0.25" r="0.25" fill="#fff"/>
    </g>
    <g id="Grupo_129" data-name="Grupo 129" transform="translate(148.08 578) rotate(180)">
      <circle id="Elipse_4-27" data-name="Elipse 4" cx="0.25" cy="0.25" r="0.25" fill="#fff"/>
      <circle id="Elipse_5-27" data-name="Elipse 5" cx="0.25" cy="0.25" r="0.25" fill="#fff"/>
    </g>
    <g id="Grupo_582" data-name="Grupo 582" transform="translate(59.08 609) rotate(180)">
      <circle id="Elipse_4-28" data-name="Elipse 4" cx="0.25" cy="0.25" r="0.25" fill="#fff"/>
      <circle id="Elipse_5-28" data-name="Elipse 5" cx="0.25" cy="0.25" r="0.25" fill="#fff"/>
    </g>
    <g id="Grupo_577" data-name="Grupo 577" transform="translate(325.08 479) rotate(180)">
      <circle id="Elipse_4-29" data-name="Elipse 4" cx="0.25" cy="0.25" r="0.25" fill="#fff"/>
      <circle id="Elipse_5-29" data-name="Elipse 5" cx="0.25" cy="0.25" r="0.25" fill="#fff"/>
    </g>
    <g id="Grupo_584" data-name="Grupo 584" transform="translate(653.08 643.5) rotate(180)">
      <circle id="Elipse_4-30" data-name="Elipse 4" cx="0.25" cy="0.25" r="0.25" fill="#fff"/>
      <circle id="Elipse_5-30" data-name="Elipse 5" cx="0.25" cy="0.25" r="0.25" fill="#fff"/>
    </g>
  </g>
</svg>
