<svg id="discordlogo" xmlns="http://www.w3.org/2000/svg" xmlns:xlink="http://www.w3.org/1999/xlink" width="24" height="24" viewBox="0 0 24 24">
  <defs>
    <clipPath id="clip-path">
      <rect id="Rectángulo_167" data-name="Rectángulo 167" width="24" height="24" fill="none"/>
    </clipPath>
  </defs>
  <g id="Grupo_635" data-name="Grupo 635" clip-path="url(#clip-path)">
    <path id="Trazado_244" data-name="Trazado 244" d="M17.307,5.173A16.442,16.442,0,0,0,13.335,4a10.6,10.6,0,0,0-.508.993,15.452,15.452,0,0,0-4.4,0A10.65,10.65,0,0,0,7.911,4,16.34,16.34,0,0,0,3.937,5.176,14.925,14.925,0,0,0,1.082,15.654,16.269,16.269,0,0,0,5.953,18,11.3,11.3,0,0,0,7,16.385a10.589,10.589,0,0,1-1.643-.751c.138-.1.273-.2.4-.3a11.888,11.888,0,0,0,9.738,0c.131.1.266.2.4.3a10.491,10.491,0,0,1-1.645.752A11.113,11.113,0,0,0,15.295,18a16.252,16.252,0,0,0,4.873-2.346A14.919,14.919,0,0,0,17.307,5.173m-9.88,8.372a1.854,1.854,0,0,1,0-3.7,1.778,1.778,0,0,1,1.731,1.85,1.788,1.788,0,0,1-1.731,1.851m6.4,0a1.854,1.854,0,0,1,0-3.7,1.778,1.778,0,0,1,1.73,1.85,1.789,1.789,0,0,1-1.73,1.851" transform="translate(1.441 1.048)" fill="#0b0d14"/>
  </g>
</svg>
