<svg id="instagramlogo" xmlns="http://www.w3.org/2000/svg" xmlns:xlink="http://www.w3.org/1999/xlink" width="24" height="24" viewBox="0 0 24 24">
  <defs>
    <clipPath id="clip-path">
      <rect id="Rectángulo_169" data-name="Rectángulo 169" width="24" height="24" fill="none"/>
    </clipPath>
  </defs>
  <g id="Grupo_637" data-name="Grupo 637" clip-path="url(#clip-path)">
    <path id="Trazado_246" data-name="Trazado 246" d="M12,9.3a2.7,2.7,0,1,0,1.909.791A2.7,2.7,0,0,0,12,9.3m0-1.8A4.5,4.5,0,1,1,8.818,8.818,4.5,4.5,0,0,1,12,7.5m5.85-.225a1.123,1.123,0,1,1-.329-.8,1.122,1.122,0,0,1,.329.8M12,4.8c-2.227,0-2.59.006-3.626.052a4.877,4.877,0,0,0-1.618.3A2.812,2.812,0,0,0,5.15,6.756a4.895,4.895,0,0,0-.3,1.618C4.8,9.367,4.8,9.715,4.8,12c0,2.227.006,2.59.052,3.626a4.9,4.9,0,0,0,.3,1.617,2.8,2.8,0,0,0,1.6,1.6,4.914,4.914,0,0,0,1.62.3c.994.047,1.341.052,3.626.052,2.227,0,2.59-.006,3.626-.052a4.909,4.909,0,0,0,1.617-.3,2.617,2.617,0,0,0,.972-.632,2.588,2.588,0,0,0,.634-.972,4.937,4.937,0,0,0,.3-1.62c.047-.994.052-1.341.052-3.626,0-2.227-.006-2.59-.052-3.626a4.887,4.887,0,0,0-.3-1.618,2.62,2.62,0,0,0-.633-.972,2.59,2.59,0,0,0-.972-.634,4.9,4.9,0,0,0-1.618-.3C14.633,4.8,14.285,4.8,12,4.8M12,3c2.445,0,2.75.009,3.71.054a6.609,6.609,0,0,1,2.185.419,4.587,4.587,0,0,1,2.632,2.632,6.629,6.629,0,0,1,.419,2.185C20.988,9.25,21,9.555,21,12s-.009,2.75-.054,3.71a6.634,6.634,0,0,1-.419,2.185A4.587,4.587,0,0,1,17.9,20.527a6.629,6.629,0,0,1-2.185.419c-.96.042-1.265.054-3.71.054s-2.75-.009-3.71-.054a6.634,6.634,0,0,1-2.185-.419A4.587,4.587,0,0,1,3.473,17.9a6.6,6.6,0,0,1-.419-2.185C3.012,14.75,3,14.445,3,12s.009-2.75.054-3.71a6.6,6.6,0,0,1,.419-2.185A4.587,4.587,0,0,1,6.105,3.473,6.6,6.6,0,0,1,8.29,3.054C9.25,3.012,9.555,3,12,3" fill="#0a0d14"/>
  </g>
</svg>
