<svg xmlns="http://www.w3.org/2000/svg" xmlns:xlink="http://www.w3.org/1999/xlink" width="200" height="80" viewBox="0 0 200 80">
  <defs>
    <clipPath id="clip-path">
      <rect id="Rect치ngulo_77" data-name="Rect치ngulo 77" width="138.121" height="41.463" fill="#ccc"/>
    </clipPath>
  </defs>
  <g id="chewy" transform="translate(-4449 541)">
    <rect id="Rect치ngulo_33" data-name="Rect치ngulo 33" width="200" height="80" rx="8" transform="translate(4449 -541)" fill="#ccc" opacity="0"/>
    <g id="Grupo_63" data-name="Grupo 63" transform="translate(4480 -522)">
      <g id="Grupo_45" data-name="Grupo 45" clip-path="url(#clip-path)">
        <path id="Trazado_143" data-name="Trazado 143" d="M70.728,20.209c-.852,1.8-1.2,3.62-4.2,4.837a5.252,5.252,0,0,1-6.469-2.184s9.663-4.465,12.511-6.184a5.93,5.93,0,0,0,1.956-1.789q.608,1.541,1.239,3.072a3.916,3.916,0,0,0-5.041,2.248m-10.419-8.59c3.99-1.888,6.214,1.99,6.214,1.99L57.76,17.754s-1.442-4.247,2.548-6.134m74.73-3.331a4.353,4.353,0,0,0-5.626,2.921l-4.228,13.141-.106-.005C123.736,18.67,121.9,10.9,121.9,10.9a4.369,4.369,0,0,0-5.378-3.372,4.5,4.5,0,0,0-2.415,1.5,4.249,4.249,0,0,0-3.758-3.672,4.354,4.354,0,0,0-4.908,3.917L103.7,22.8l-.1.01L100,12.848c-1.463-4.054-2.66-6.155-6.3-5.743S89.356,9.835,88.8,14.118l-1.361,10.53-.1.012-4.61-12.814a4.315,4.315,0,0,0-5.632-2.722,4.383,4.383,0,0,0-2.321,1.925c-1.82-4.76-8.877-9.337-17.541-4.6-4.515,2.471-6.615,5.877-7.3,9.3a8.619,8.619,0,0,0-7.309-5.321,9.253,9.253,0,0,0-7.271,2.32l-.094-.008.678-7.779a4.508,4.508,0,1,0-8.978-.812L25.344,22.684a3.417,3.417,0,0,0-3.436-1.012c-2.86.7-3.591,4.161-6.63,4.8-3.448.724-5.63-2.019-6.295-5.317-.545-2.709-.078-6.7,3.753-7.286,3.364-.516,4.152,3.059,7.9,2.306a3.446,3.446,0,0,0,2.769-4.5C22.585,8.23,17.224,5.7,11.339,6.934,3.769,8.522-1.35,15.406.316,24.042,2.037,32.967,10.307,35.859,16.85,34.4c4.052-.9,6.492-2.782,7.884-4.71L24.645,30.7a4.508,4.508,0,1,0,8.978.812l.922-10.58c.25-2.959,2.213-4.045,3.923-3.89s3.423,1.793,3.195,4.535l-.921,10.58a4.508,4.508,0,1,0,8.978.814l.814-9.35q.263.778.6,1.526c3.986,8.761,12.15,9.32,18.514,6.309a16.966,16.966,0,0,0,7.168-5.824,8.87,8.87,0,0,0,1.166-2.436q.7,1.6,1.428,3.188c3.068,6.638,4.138,8.274,9.031,7.848,4.864-.681,5.337-2.712,6.639-14.054l.052-.005.052-.007c3.713,10.773,4.612,12.649,9.5,12.223,4.864-.681,5.555-2.517,7.12-9.68q.939-4.393,1.7-8.821l1.082,3.568c2.616,8.581,5.33,14.272,3.694,15.1-1.454.735-2.3-1.849-5.095-1.673a3.657,3.657,0,0,0-3.008,4.717c.857,3.507,6.243,7.231,12.43,5.365,6.233-1.88,8.054-7.02,15.238-26.9a4.44,4.44,0,0,0-2.814-5.776" transform="translate(0 0)" fill="#ccc"/>
      </g>
    </g>
  </g>
</svg>
