<svg xmlns="http://www.w3.org/2000/svg" xmlns:xlink="http://www.w3.org/1999/xlink" width="200" height="80" viewBox="0 0 200 80">
  <defs>
    <clipPath id="clip-path">
      <rect id="Rect치ngulo_78" data-name="Rect치ngulo 78" width="117.669" height="34.73" fill="#ccc"/>
    </clipPath>
  </defs>
  <g id="gnc" transform="translate(-3985 429)">
    <rect id="Rect치ngulo_41" data-name="Rect치ngulo 41" width="200" height="80" rx="8" transform="translate(3985 -429)" fill="#ccc" opacity="0"/>
    <g id="Grupo_60" data-name="Grupo 60" transform="translate(4026.477 -406)">
      <g id="Grupo_47" data-name="Grupo 47" transform="translate(0 0)" clip-path="url(#clip-path)">
        <path id="Trazado_144" data-name="Trazado 144" d="M38.213,22.179V9.509H19.742v3.934H29.988v1.64c0,2.223-1.771,3.3-4.041,3.3H14.37c-3.566,0-3.423-2.544-3.423-4.053l-.071-5.717c0-1.486-.38-3.863,2.793-4.5a5.061,5.061,0,0,1,1.189-.131h23.3V0h-27.9C3.566,0,0,5.384,0,11.339,0,17.1,2.532,22.167,9.937,22.167H38.213Zm79.457,0V18.007H96.1c-3.352-.071-2.983-2.092-2.983-3.566V8.8c0-1.45-.321-3.8,2.52-4.5.321-.071.82-.119.82-.119h21.216V0H91.342C85.459,0,82.3,5.384,82.3,11.339c0,5.765,2.211,10.78,8.784,10.78h26.589Zm-65.1,0V5.943L67.428,22.167H77.8V0H69.211V16.735L53.486,0H43.835V22.179ZM2.591,25.923V34.73H10.7V33.459H4.041V25.911H2.591Zm13.467,8.736h1.45V25.911h-1.45Zm15.82-8.736L27.837,33.15l-3.994-7.286H22.2l4.861,8.807h1.593l4.861-8.748Zm6.133,0V34.73h8.677V33.459H39.556V30.9H46.45V29.584H39.556V27.207h7.131V25.982H38.035Zm37.773,0-2.841,7.131-2.722-7.131H68.51l-2.781,7.131-2.853-7.131H61.366l3.483,8.807H66.56L69.342,27.6l2.722,7.131h1.712l3.483-8.807Zm6.2,0V34.73h8.665V33.459H83.522V30.9h6.811V29.584H83.51V27.207h7.131V25.982H82.012Zm14.263,0V34.73H104.3V33.459h-6.62V25.911h-1.4Zm13.419,0V34.73h8V33.459H111.1V25.911h-1.462Z" transform="translate(0 0)" fill="#ccc"/>
      </g>
    </g>
  </g>
</svg>
