<svg xmlns="http://www.w3.org/2000/svg" width="200" height="80" viewBox="0 0 200 80">
  <g id="guitarcenter" transform="translate(-4217 429)">
    <rect id="Rectángulo_40" data-name="Rectángulo 40" width="200" height="80" rx="8" transform="translate(4217 -429)" fill="#ccc" opacity="0"/>
    <g id="logo" transform="translate(4242.02 -450.719)">
      <g id="Grupo_49" data-name="Grupo 49" transform="translate(19.98 29.719)">
        <path id="Trazado_145" data-name="Trazado 145" d="M99.39,32.661a6,6,0,0,0-2-2.27.289.289,0,0,0-.272,0l-1.68.953-.182-.318.363-.5a.289.289,0,0,0,0-.272l-.182-.318a.453.453,0,0,0-.227-.182,1.175,1.175,0,0,0-.863.136,1.04,1.04,0,0,0-.545.681.576.576,0,0,0,.045.272l.182.318a.25.25,0,0,0,.227.136l.59-.045.182.318-2.406,1.362-.182-.318.363-.5a.289.289,0,0,0,0-.272l-.182-.318a.3.3,0,0,0-.227-.182,1.175,1.175,0,0,0-.863.136,1.041,1.041,0,0,0-.545.681.576.576,0,0,0,.045.272l.182.318a.25.25,0,0,0,.227.136l.59-.045.182.318-2.406,1.362-.182-.318.363-.5c.045-.091.091-.182,0-.272l-.182-.318a.3.3,0,0,0-.227-.182,1.216,1.216,0,0,0-1.407.817.576.576,0,0,0,.045.272l.182.318a.25.25,0,0,0,.227.136l.59-.045.182.318-1.044.59a.453.453,0,0,0-.182.227,3.547,3.547,0,0,1-1.634,1.725L59.576,51.138c-2.043-3.586-4.177-5.856-6.174-6.492a6.732,6.732,0,0,0-5.448.59,9.619,9.619,0,0,0-2.315,1.725l-.318.136a15.556,15.556,0,0,1-3.45,2.5,9.389,9.389,0,0,1-4.4.817c-4.585-.545-8.217,0-11.122,1.589-3.541,1.952-5.584,4.4-6.174,7.491-.636,3.269.318,7.264,2.86,12.167.136.227.227.454.363.681s.227.454.363.681h0c4.948,9.488,10.668,12.167,18.023,8.489,2.951-1.5,5.448-4.177,7.627-8.262a9.664,9.664,0,0,1,3.178-3.178,14.249,14.249,0,0,1,4.04-1.407l.318-.091a9.724,9.724,0,0,0,2.724-.953,6.706,6.706,0,0,0,3.586-4.177c.636-2,0-5.039-1.861-8.807L88.267,40.47a3.3,3.3,0,0,1,2.361-.363.576.576,0,0,0,.272-.045l1.09-.5.182.318-.363.454a.214.214,0,0,0-.045.272l.182.318h0a.3.3,0,0,0,.227.182,1.235,1.235,0,0,0,1.453-.726.3.3,0,0,0-.045-.272l-.182-.318a.25.25,0,0,0-.227-.136h-.59l-.136-.318,2.5-1.226.182.318-.363.454a.3.3,0,0,0-.045.272l.182.318a.3.3,0,0,0,.227.182,1.235,1.235,0,0,0,1.453-.726.3.3,0,0,0-.045-.272l-.182-.318a.25.25,0,0,0-.227-.136h-.59l-.182-.182,2.5-1.226.182.363-.363.454a.214.214,0,0,0-.045.272l.182.318a.547.547,0,0,0,.227.227A1.235,1.235,0,0,0,99.48,37.7a.3.3,0,0,0-.045-.272l-.182-.318a.25.25,0,0,0-.227-.136h-.59l-.182-.318,1.771-.863a.25.25,0,0,0,.136-.227A6.3,6.3,0,0,0,99.39,32.661ZM58.4,56.541c1.634,3.359,2.043,4.767,1.634,6.083a3.756,3.756,0,0,1-1.861,2.134,8.979,8.979,0,0,1-2.179.817l-.318.091a13.907,13.907,0,0,0-4.54,1.771c-1.861,1.09-2.588,2.088-4.04,4.131l-.545.726c-2.5,3.813-4.086,5.493-6.673,6.764a7.245,7.245,0,0,1-7.445-.227c-1.952-1.044-4.358-4.086-6.265-7.854l-.045-.045c-2.043-3.723-3.132-7.445-2.905-9.624A7.183,7.183,0,0,1,27.3,55.088c2.542-1.407,4.812-1.771,9.4-1.634H37.6c2.5-.045,3.768-.091,5.72-.953a14.291,14.291,0,0,0,4.086-2.724l.227-.227a10.965,10.965,0,0,1,1.907-1.317,3.407,3.407,0,0,1,2.815-.318c1.317.409,2.27,1.544,4.086,4.812v.045l-4.676,2.361a5.409,5.409,0,1,0,2,3.859v-.136L58.4,56.4l-.045.045Z" transform="translate(-19.98 -29.719)" fill="#ccc"/>
        <path id="Trazado_146" data-name="Trazado 146" d="M192.5,97.865h-3.4V84.7h3.4Z" transform="translate(-112.324 -59.74)" fill="#ccc"/>
        <path id="Trazado_147" data-name="Trazado 147" d="M192.5,79.8h-3.4V77.3h3.4Z" transform="translate(-112.324 -55.7)" fill="#ccc"/>
        <path id="Trazado_148" data-name="Trazado 148" d="M102.489,122.985a9.14,9.14,0,0,0-8.4-2.951,8.855,8.855,0,0,0-7.491,8.853,8.987,8.987,0,0,0,9.08,8.807h.091a8.888,8.888,0,0,0,6.038-2.588l.5-.5-1.907-2.179-.045-.045h-.045l-.182.136a.626.626,0,0,1-.182.136,6.228,6.228,0,0,1-4.358,1.68h-.045a5.481,5.481,0,0,1-3.95-1.544,5.757,5.757,0,0,1-1.725-3.995c-.045-4.631,4.494-5.675,5.584-5.675a6.883,6.883,0,0,1,4.812,1.907l.182.136.227-.272Z" transform="translate(-56.356 -78.958)" fill="#ccc"/>
        <path id="Trazado_149" data-name="Trazado 149" d="M171.413,97.875h-3.223v-1.18a4.225,4.225,0,0,1-3.314,1.5c-3.087,0-5.175-2.315-5.175-5.765V84.8h3.359v7.672a2.368,2.368,0,0,0,2.452,2.588,2.481,2.481,0,0,0,2.542-2.406V84.8h3.359Z" transform="translate(-96.27 -59.795)" fill="#ccc"/>
        <path id="Trazado_150" data-name="Trazado 150" d="M254.945,87.421a3.63,3.63,0,0,0-3.223.817,3.924,3.924,0,0,0-.863,2.86v6.446H247.5V84.425h3.223v1.317a4.292,4.292,0,0,1,4.222-1.544Z" transform="translate(-144.211 -59.42)" fill="#ccc"/>
        <path id="Trazado_151" data-name="Trazado 151" d="M122.7,132.817a3.346,3.346,0,0,0,3.269,2.588,3.018,3.018,0,0,0,2.769-1.544h3.586a6.219,6.219,0,0,1-6.31,4.494A6.791,6.791,0,0,1,119.3,131.5a6.861,6.861,0,0,1,6.719-6.9c3.859,0,7.082,3,6.583,8.172Zm6.537-2.724a3.267,3.267,0,0,0-3.269-2.5,3.327,3.327,0,0,0-3.223,2.5Z" transform="translate(-74.21 -81.526)" fill="#ccc"/>
        <path id="Trazado_152" data-name="Trazado 152" d="M162.013,138.092h-3.359V130.42a2.323,2.323,0,0,0-2.451-2.588,2.481,2.481,0,0,0-2.542,2.406v7.854H150.3V125.018h3.223v1.271a4.425,4.425,0,0,1,3.4-1.589c3.087,0,5.13,2.315,5.13,5.766v7.627Z" transform="translate(-91.138 -81.581)" fill="#ccc"/>
        <path id="Trazado_153" data-name="Trazado 153" d="M178.561,134.489V124.365H176.7v-2.951h1.861V118.1h3.359v3.314h2.088v2.951h-2.088v10.124Z" transform="translate(-105.553 -77.977)" fill="#ccc"/>
        <path id="Trazado_154" data-name="Trazado 154" d="M200.861,94.089V83.965H199V81.014h1.861V77.7h3.359v3.314h2.088v3h-2.088V94.134Z" transform="translate(-117.729 -55.918)" fill="#ccc"/>
        <path id="Trazado_155" data-name="Trazado 155" d="M195.9,132.872a3.346,3.346,0,0,0,3.269,2.588,3.018,3.018,0,0,0,2.769-1.544h3.586a6.219,6.219,0,0,1-6.31,4.494,6.781,6.781,0,0,1-6.719-6.81h0a6.861,6.861,0,0,1,6.719-6.9c3.859,0,7.082,3,6.583,8.172Zm6.583-2.724a3.267,3.267,0,0,0-3.269-2.5,3.327,3.327,0,0,0-3.223,2.5Z" transform="translate(-114.179 -81.581)" fill="#ccc"/>
        <path id="Trazado_156" data-name="Trazado 156" d="M231.445,128.021a3.63,3.63,0,0,0-3.223.817,3.924,3.924,0,0,0-.863,2.86v6.446H224v-13.12h3.223v1.317a4.292,4.292,0,0,1,4.222-1.544Z" transform="translate(-131.38 -81.588)" fill="#ccc"/>
        <path id="Trazado_157" data-name="Trazado 157" d="M135,80.477a9.028,9.028,0,0,0-16.3,5.175,8.812,8.812,0,0,0,2.588,6.356,8.7,8.7,0,0,0,6.219,2.678h.091a8.981,8.981,0,0,0,8.989-8.853c0-.5-.045-1-.091-1.453h-8.353v3.132h4.948a5.753,5.753,0,0,1-5.448,3.95H127.6a5.423,5.423,0,0,1-3.9-1.68,5.479,5.479,0,0,1-1.634-4.04,5.677,5.677,0,0,1,5.72-5.629h.045a5.786,5.786,0,0,1,4.54,2.27l.091.136Z" transform="translate(-73.882 -55.426)" fill="#ccc"/>
        <path id="Trazado_158" data-name="Trazado 158" d="M228.338,97.392h-3.223V95.985a5.525,5.525,0,0,1-3.995,1.68c-3.4,0-6.219-2.951-6.219-6.81S217.715,84,221.119,84a5.525,5.525,0,0,1,3.995,1.68V84.272h3.223v13.12Zm-6.719-10.305a3.545,3.545,0,0,0-3.359,3.768,3.373,3.373,0,1,0,6.719,0A3.573,3.573,0,0,0,221.619,87.087Z" transform="translate(-126.411 -59.358)" fill="#ccc"/>
        <path id="Trazado_159" data-name="Trazado 159" d="M245.044,124.9v.318h-.59v1.589h-.363v-1.589h-.59v-.272Zm2.043,1.907L247,125.672v-.545h0a2.937,2.937,0,0,1-.182.59l-.363,1.044h-.409l-.363-1.09c-.045-.136-.091-.363-.136-.545H245.5v.545l-.091,1.135h-.363l.136-1.907h.59l.318.953a3.687,3.687,0,0,1,.136.5h0c.045-.182.091-.318.136-.454l.318-.953h.545l.136,1.907Z" transform="translate(-142.027 -81.69)" fill="#ccc"/>
      </g>
    </g>
  </g>
</svg>
