<svg xmlns="http://www.w3.org/2000/svg" width="200" height="80" viewBox="0 0 200 80">
  <g id="logitech" transform="translate(-4217 541)">
    <rect id="Rectángulo_34" data-name="Rectángulo 34" width="200" height="80" rx="8" transform="translate(4217 -541)" fill="#ccc" opacity="0"/>
    <g id="logitechg" transform="translate(4249.959 -517)">
      <path id="Trazado_160" data-name="Trazado 160" d="M27.615,22.2a3.814,3.814,0,1,1,3.86-3.861A3.721,3.721,0,0,1,27.615,22.2Zm7.127-7.723V11.874H29.991a6.807,6.807,0,0,0-2.376-.386,6.956,6.956,0,1,0,0,13.9,6.975,6.975,0,0,0,7.226-6.951,6.134,6.134,0,0,0-1.089-3.572ZM11.977,22.2a3.814,3.814,0,1,1,0-7.626,3.814,3.814,0,1,1,0,7.626Zm0-10.716a6.956,6.956,0,1,0,0,13.9,6.956,6.956,0,1,0,0-13.9ZM0,25H3.365V6.372H0Zm36.227,0h3.365V11.874H36.227Zm-8.611,4.634a3.757,3.757,0,0,1-3.86-3.765H20.39a6.975,6.975,0,0,0,7.226,6.951,6.976,6.976,0,0,0,7.226-6.951H31.476A3.7,3.7,0,0,1,27.615,29.637Zm24.349-12.55a3.49,3.49,0,0,1,3.563-2.7,3.313,3.313,0,0,1,3.464,2.7Zm3.662-5.6A6.913,6.913,0,0,0,48.5,18.535c0,3.958,2.771,6.854,7.127,6.854a8.4,8.4,0,0,0,6.137-2.51l-2.277-2.22A5.274,5.274,0,0,1,55.726,22.4a3.546,3.546,0,0,1-3.662-2.7H62.556v-.772C62.556,14.481,59.685,11.488,55.627,11.488Zm29.793,0a5.359,5.359,0,0,0-4.058,1.641V6.275H78V25h3.365V17.86a2.98,2.98,0,0,1,3.266-3.186c1.881,0,2.969,1.158,2.969,3.186V25h3.365V17.28C90.963,13.612,88.587,11.488,85.42,11.488ZM70.87,14.674a4.5,4.5,0,0,1,3.464,1.738l2.376-2.22a7.17,7.17,0,0,0-5.741-2.607,6.956,6.956,0,1,0,0,13.9A7.474,7.474,0,0,0,76.71,22.88l-2.376-2.317A4.819,4.819,0,0,1,70.87,22.3a3.674,3.674,0,0,1-3.761-3.765A3.642,3.642,0,0,1,70.87,14.674ZM46.224,7.82H42.858v4.055H41.077v2.9h1.782V25h3.365V14.77H48.1v-2.9H46.224ZM37.909,5.985a2.175,2.175,0,1,0,2.277,2.22A2.213,2.213,0,0,0,37.909,5.985ZM116.5,0V6.661a9.432,9.432,0,0,0-9.6,9.364,9.493,9.493,0,0,0,9.6,9.364v6.661A16.278,16.278,0,0,1,99.97,16.025,16.278,16.278,0,0,1,116.5,0Zm.2,13.129v6.565h7.918v7.723h6.731V13.129Z" fill="#ccc"/>
      <path id="Trazado_161" data-name="Trazado 161" d="M62.24,13.991H64.4v.44h-.865v2.857H63.1V14.431H62.24Z" transform="translate(69.432 15.608)" fill="#ccc"/>
      <path id="Trazado_162" data-name="Trazado 162" d="M65.2,16.629h-.324L63.9,15.09v2.2h-.432v-3.3h.324l1.3,1.978,1.189-1.978H66.6v3.3h-.432v-2.2Z" transform="translate(70.799 15.608)" fill="#ccc"/>
    </g>
  </g>
</svg>
