<svg xmlns="http://www.w3.org/2000/svg" xmlns:xlink="http://www.w3.org/1999/xlink" width="200" height="80" viewBox="0 0 200 80">
  <defs>
    <clipPath id="clip-path">
      <rect id="Rect치ngulo_71" data-name="Rect치ngulo 71" width="126.987" height="53.844" fill="#ccc"/>
    </clipPath>
  </defs>
  <g id="newegg" transform="translate(-3521 429)">
    <rect id="Rect치ngulo_43" data-name="Rect치ngulo 43" width="200" height="80" rx="8" transform="translate(3521 -429)" fill="#ccc" opacity="0"/>
    <g id="Grupo_59" data-name="Grupo 59" transform="translate(3557.494 -416)">
      <g id="Grupo_33" data-name="Grupo 33" clip-path="url(#clip-path)">
        <path id="Trazado_55" data-name="Trazado 55" d="M132.52.864c-.406,0-.818.015-1.232.044-9.779.647-21.258,8.436-26.808,17.226C97.048,29.9,99.433,44.745,109.808,51.3a19.962,19.962,0,0,0,9.889,3.05,22.972,22.972,0,0,0,10.293-1.92c-16.52-8.628-12.617-27.161-7.55-34.5a40.943,40.943,0,0,1,18.024-14.9c-.041-.028-.084-.054-.125-.082A14.35,14.35,0,0,0,132.52.864Z" transform="translate(-80.943 -0.699)" fill="#ccc"/>
        <path id="Trazado_56" data-name="Trazado 56" d="M32.461,1.718C22.417,1.7,10.128,9.8,4.324,18.987-3.108,30.753-.722,45.6,9.652,52.151c5.969,3.768,13.284,3.968,19.834,1.212A19.707,19.707,0,0,1,26.939,52c-10.375-6.552-12.755-21.4-5.328-33.163A41.312,41.312,0,0,1,40.006,3.689,14.388,14.388,0,0,0,32.461,1.718Z" transform="translate(0 -1.388)" fill="#ccc"/>
        <path id="Trazado_57" data-name="Trazado 57" d="M319.4,124.772a.809.809,0,0,0-.739.327,8.072,8.072,0,0,0-.58,1.751l-.32,1.237,1.483-.01.32-1.237a6.155,6.155,0,0,0,.294-1.695A.391.391,0,0,0,319.4,124.772Z" transform="translate(-256.804 -100.838)" fill="#ccc"/>
        <path id="Trazado_58" data-name="Trazado 58" d="M246.559,37.9l-5.494.049q.345-3.083,1.051-8.158-.848,2.251-1.8,4.507l-1.473,3.669-5.491.051,2.191-16.807,4.364-.038q-.092.656-1.373,9.664.368-.962,3.669-9.682l4.165-.036-1.442,9.664q1.358-4.268,3.669-9.682l4.144-.033c.251-8.01-1.979-15.493-7.509-18.982A14.819,14.819,0,0,0,236.184.044c-9.776.647-21.258,8.436-26.811,17.226a26.687,26.687,0,0,0-3.74,19.928l4.08-15.769,5.215-.044-.506,1.549a5.747,5.747,0,0,1,1.715-1.4,4.356,4.356,0,0,1,1.969-.473,2.81,2.81,0,0,1,1.976.6,2,2,0,0,1,.665,1.559,14.978,14.978,0,0,1-.583,3.145l-3.047,11.781L212,38.193l3.014-11.655a12.046,12.046,0,0,0,.442-2.114c-.01-.253-.182-.378-.524-.376a.856.856,0,0,0-.777.442,12.843,12.843,0,0,0-.747,2.342L210.47,38.2l-4.579.041a20.563,20.563,0,0,0,8.81,12.182,20,20,0,0,0,9.891,3.055c8.339.355,17.088-4.19,22.339-12.507a41.025,41.025,0,0,0,5.778-19.251Zm-14-7.976-6.593.056-.943,3.64a4.2,4.2,0,0,0-.22,1.473c.051.217.23.325.539.325a1.032,1.032,0,0,0,.877-.442,6.111,6.111,0,0,0,.629-1.7l.575-2.224,4.855-.041-.32,1.242a13.254,13.254,0,0,1-.815,2.4,6.988,6.988,0,0,1-1.378,1.795,6.474,6.474,0,0,1-2.191,1.439,8.027,8.027,0,0,1-2.9.5,7,7,0,0,1-2.725-.44,3.132,3.132,0,0,1-1.6-1.273,3.579,3.579,0,0,1-.491-1.787,11.829,11.829,0,0,1,.473-2.856l1.271-4.9a10.365,10.365,0,0,1,1.491-3.482,6.007,6.007,0,0,1,2.449-1.966,8.1,8.1,0,0,1,3.278-.7,5.827,5.827,0,0,1,3.331.785,3.092,3.092,0,0,1,1.4,2.15,9.974,9.974,0,0,1-.417,3.791Z" transform="translate(-165.719 0)" fill="#ccc"/>
        <path id="Trazado_59" data-name="Trazado 59" d="M452.952,113.98l.32-1.237a6.37,6.37,0,0,0,.294-1.695.4.4,0,0,0-.46-.378.809.809,0,0,0-.741.33,8.17,8.17,0,0,0-.573,1.754l-.325,1.237Zm4.4,2.677-6.591.056-.943,3.635a4.209,4.209,0,0,0-.22,1.472c.049.22.227.33.539.325a1.019,1.019,0,0,0,.877-.442,6.065,6.065,0,0,0,.629-1.7l.575-2.222,4.855-.041-.325,1.24a12.626,12.626,0,0,1-.813,2.4,7.105,7.105,0,0,1-1.378,1.795,6.467,6.467,0,0,1-2.191,1.442,8.087,8.087,0,0,1-2.9.5,7,7,0,0,1-2.725-.447,3.106,3.106,0,0,1-1.593-1.268,3.6,3.6,0,0,1-.491-1.79,11.837,11.837,0,0,1,.473-2.856l1.268-4.9a10.4,10.4,0,0,1,1.5-3.482,5.985,5.985,0,0,1,2.449-1.969,7.988,7.988,0,0,1,3.278-.7,5.767,5.767,0,0,1,3.329.787,3.1,3.1,0,0,1,1.4,2.147,9.921,9.921,0,0,1-.417,3.791Z" transform="translate(-359.363 -87.039)" fill="#ccc"/>
        <path id="Trazado_60" data-name="Trazado 60" d="M518.327,111.974a4.7,4.7,0,0,0,.24-1.47c-.038-.21-.2-.315-.5-.315a.87.87,0,0,0-.721.368,4.376,4.376,0,0,0-.555,1.429l-1.463,5.663a4.776,4.776,0,0,0-.245,1.462c.033.228.2.335.5.332a.857.857,0,0,0,.762-.409,7.905,7.905,0,0,0,.631-1.843Zm6.266-4.5-3.354,12.967a31.782,31.782,0,0,1-1.007,3.4,4.894,4.894,0,0,1-1.281,1.634,6.422,6.422,0,0,1-2.373,1.322,11.415,11.415,0,0,1-3.4.483,6.768,6.768,0,0,1-3.71-.8q-1.262-.825-.683-3.262l4.96-.044c-.2.759-.026,1.138.526,1.133a1.059,1.059,0,0,0,.864-.355,4.33,4.33,0,0,0,.568-1.455l.332-1.286a6.941,6.941,0,0,1-1.618.918,4.636,4.636,0,0,1-1.611.317,3.5,3.5,0,0,1-2.127-.539,2,2,0,0,1-.846-1.452,7.488,7.488,0,0,1,.33-2.575l1.58-6.1a7.094,7.094,0,0,1,1.756-3.451,4.13,4.13,0,0,1,2.886-1.071,3.275,3.275,0,0,1,1.644.378,2.874,2.874,0,0,1,1.117,1.171l.688-1.281Z" transform="translate(-411.04 -86.674)" fill="#ccc"/>
        <path id="Trazado_61" data-name="Trazado 61" d="M588.37,111.355a4.785,4.785,0,0,0,.24-1.472c-.033-.212-.2-.315-.5-.312a.884.884,0,0,0-.729.368,4.759,4.759,0,0,0-.547,1.427l-1.467,5.663a4.951,4.951,0,0,0-.24,1.465c.028.223.2.332.5.33a.838.838,0,0,0,.754-.412,7.662,7.662,0,0,0,.637-1.843Zm6.263-4.507-3.359,12.967a30.752,30.752,0,0,1-1,3.4A4.86,4.86,0,0,1,589,124.838a6.46,6.46,0,0,1-2.377,1.327,11.317,11.317,0,0,1-3.4.476,6.712,6.712,0,0,1-3.7-.8c-.846-.55-1.074-1.634-.685-3.262l4.957-.041c-.194.759-.026,1.135.527,1.133a1.065,1.065,0,0,0,.864-.355,4.461,4.461,0,0,0,.57-1.455l.332-1.288a6.7,6.7,0,0,1-1.618.915,4.533,4.533,0,0,1-1.605.319,3.523,3.523,0,0,1-2.127-.537,2,2,0,0,1-.846-1.455,7.662,7.662,0,0,1,.327-2.574l1.577-6.1a7.094,7.094,0,0,1,1.756-3.449,4.125,4.125,0,0,1,2.891-1.074,3.221,3.221,0,0,1,1.644.381,2.858,2.858,0,0,1,1.112,1.168l.693-1.281Z" transform="translate(-467.646 -86.168)" fill="#ccc"/>
      </g>
    </g>
  </g>
</svg>
