<svg xmlns="http://www.w3.org/2000/svg" width="200" height="80" viewBox="0 0 200 80">
  <g id="qvc" transform="translate(-3753 429)">
    <rect id="Rectángulo_42" data-name="Rectángulo 42" width="200" height="80" rx="8" transform="translate(3753 -429)" fill="#ccc" opacity="0"/>
    <g id="qvc-logo-2019" transform="translate(3782.051 -414)">
      <path id="Trazado_169" data-name="Trazado 169" d="M57.357,35.176A12.771,12.771,0,0,1,44.61,22.308,12.717,12.717,0,0,1,57.376,9.36a12.885,12.885,0,0,1,13,12.874,12.607,12.607,0,0,1-3.161,8.494,5.5,5.5,0,0,0,4.427,2.293.251.251,0,0,1,.262.262v2.179a.224.224,0,0,1-.237.237c-5.774,0-6.162-4.478-9.5-5.465-.384-.084-.514-.425-.059-.675a3.6,3.6,0,0,1,1.784-.552,5.942,5.942,0,0,1,.984.12,9.936,9.936,0,0,0,2.824-6.911A10.416,10.416,0,0,0,57.6,12.007a10.238,10.238,0,1,0-.078,20.475c.938,0,1.664-.227,2.4-.227a3.1,3.1,0,0,1,2.366,1.558c.191.308-.054.475-.575.625a11.385,11.385,0,0,1-4.353.737Z" transform="translate(15.061 3.16)" fill="#ccc" fill-rule="evenodd"/>
      <path id="Trazado_170" data-name="Trazado 170" d="M.389,0A.388.388,0,0,0,0,.389V49.325a.389.389,0,0,0,.389.389H49.325a.388.388,0,0,0,.389-.389V.388A.388.388,0,0,0,49.325,0ZM2.207,2.207h45.3v45.3H2.207Z" transform="translate(0 0)" fill="#ccc" fill-rule="evenodd"/>
      <g id="Grupo_50" data-name="Grupo 50" transform="translate(12.362 12.069)">
        <path id="Trazado_171" data-name="Trazado 171" d="M21.759,34.012A12.609,12.609,0,0,1,9.242,21.495a12.5,12.5,0,0,1,24.994.029,12.189,12.189,0,0,1-2.986,8.046,4.929,4.929,0,0,0,3.856,2.041.291.291,0,0,1,.324.325v2.337a.3.3,0,0,1-.324.324c-3,0-4.81-1.648-6.447-3.633a7.087,7.087,0,0,0-2.869-1.993c-.508-.116-.562-.393-.273-.662a2.84,2.84,0,0,1,2.154-.849l1.186.209A9.313,9.313,0,0,0,31.2,21.532a9.463,9.463,0,1,0-18.926,0,9.557,9.557,0,0,0,9.671,9.449c.388,0,1.071-.1,1.451-.1a3.411,3.411,0,0,1,2.862,1.727c.186.223.234.49-.25.639a13.713,13.713,0,0,1-4.248.758Z" transform="translate(-9.242 -9.023)" fill="#ccc" fill-rule="evenodd"/>
        <path id="Trazado_172" data-name="Trazado 172" d="M76.642,34.789c.2.428.372.32.546,0L88.856,9.934c.1-.207-.024-.309-.154-.309H86.107c-.174,0-.235.128-.395.48l-8.8,18.763L68.043,10c-.13-.3-.2-.379-.36-.379H65.142c-.253,0-.3.13-.2.294Zm26.586.381a12.913,12.913,0,0,1-.079-25.825,13,13,0,0,1,8.419,3.066c.292.278.415.471.094.807l-1.2,1.2c-.285.286-.476.226-.666.033a10.158,10.158,0,0,0-6.649-2.426,10.209,10.209,0,1,0,6.418,18.214c.329-.225.484-.284.7-.048l1.207,1.334c.246.258.227.514-.027.692a13.731,13.731,0,0,1-8.217,2.956Z" transform="translate(9.546 -8.914)" fill="#ccc" fill-rule="evenodd"/>
      </g>
    </g>
  </g>
</svg>
