<svg xmlns="http://www.w3.org/2000/svg" width="200" height="80" viewBox="0 0 200 80">
  <g id="woot" transform="translate(-4449 877)">
    <rect id="Rectángulo_19" data-name="Rectángulo 19" width="200" height="80" rx="8" transform="translate(4449 -877)" fill="#ccc" opacity="0"/>
    <g id="layer1" transform="translate(4613.333 -1022.197)">
      <path id="path150" d="M-4.437,166.2c-1.29,0-1.857.288-2.245,1.319-2.609,6.891-.027,25.816,2.79,26.021,4.412.32,7.514-13.72,8.257-24.285.146-2.085-.67-2.8-1.951-2.891-.27-.021-5.092-.069-5.837-.12C-3.8,166.215-4.139,166.2-4.437,166.2ZM-20.895,170.3a62.6,62.6,0,0,0-6.758.859c-1.174.213-1.333.213-1.445.641-.159.645-.428,6.917-.53,8.256-.379,0-2.255-.055-2.685,0-.8.054-1.015.16-1.015,3.056,0,2.838,0,3.109.91,3.109.377,0,2.033-.215,2.411-.215-.27,2.627-.484,5.144-.484,7.291,0,4.287,1.235,10.516,9.433,10.449,8.778-.068,9.035-4,9.739-5.287.334-.6-2.77-3.607-3.509-3.607-.154,0-1.8,3.125-3.178,3.229-1.455.107-2.836-2.535-2.836-5,0-2.625.21-5.146.323-7.452,2.838-.1,4.394,0,6.267-.1.966-.052,1.236-.216,1.34-1.876v-2.04c0-1.609-.1-1.931-1.125-1.931-.75,0-1.66,0-2.681.057-1.018,0-2.2.054-3.482.107.108-1.877.16-2.949.267-3.966.054-.588.323-3.593.323-4.237,0-1.071-.161-1.339-1.285-1.339Zm-26.527,8.929c-7.882,0-15.811,3.753-15.811,12.6,0,5.626,3.909,12.219,14.469,12.219,11.15,0,14.473-7.342,14.473-13.347C-34.29,183.2-39.435,179.232-47.421,179.232Zm-77.655.259c-.7,0-6.166,1.07-6.7,1.228-1.286.271-1.555.589-1.555,1.072,0,.805,6.111,13.454,9.112,18.6,1.875,3.321,2.787,3.536,3.589,3.536,1.181,0,1.933-.59,3.218-2.251a74.054,74.054,0,0,0,5.679-8.84l3.055,7.875c.751,1.82,1.556,3.162,3.219,3.162,1.28,0,2.356-.911,3.428-2.2a63.862,63.862,0,0,0,5.628-8.951c1.288-2.25,5.519-10.077,5.519-11.364,0-.59-.427-.858-1.125-1.018a40.939,40.939,0,0,0-4.664-.856c-.962,0-1.2.209-2.09,2.355-.077.188-3.264,10.242-4.713,10.242-1.355,0-3.962-10.957-4.073-11.2-.508-1.13-.859-1.182-1.287-1.182a60.059,60.059,0,0,0-6.593,1.129c-.11,0-1.179.321-1.179,1.015,0,.43,1.928,4.665,1.928,4.665s-2.388,5.682-3.591,5.682c-1.182,0-4.661-9.964-4.768-10.293C-123.672,180.012-124.114,179.492-125.077,179.492Zm47.764.429c-7.88,0-15.81,3.753-15.81,12.6,0,5.625,3.909,12.218,14.469,12.218,11.15,0,14.473-7.342,14.473-13.347C-64.18,183.886-69.328,179.921-77.313,179.921Zm30.446,6.732c4.227,0,5.31,2.842,5.31,4.229,0,2.715-3.739,5.372-7,5.372-3.018,0-5.977-1.812-5.977-4.65C-54.534,188.226-49.825,186.653-46.867,186.653Zm-29.891.69c4.229,0,5.312,2.838,5.312,4.225,0,2.717-3.741,5.372-7,5.372-3.018,0-5.973-1.809-5.973-4.646C-84.42,188.911-79.715,187.343-76.758,187.343Zm73.735,8.439c-2.625,0-6.807,1.4-6.807,4.4,0,2.518,2.628,4.129,5.305,4.129,2.9,0,6.22-2.359,6.22-4.77C1.7,198.3.729,195.783-3.022,195.783Z" fill="#ccc"/>
    </g>
  </g>
</svg>
