<svg id="dexerto" xmlns="http://www.w3.org/2000/svg" xmlns:xlink="http://www.w3.org/1999/xlink" width="147.169" height="28.099" viewBox="0 0 147.169 28.099">
  <defs>
    <clipPath id="clip-path">
      <rect id="Rectángulo_1755" data-name="Rectángulo 1755" width="147.169" height="28.099" fill="#ccc"/>
    </clipPath>
  </defs>
  <g id="Grupo_2499" data-name="Grupo 2499" transform="translate(0 0)" clip-path="url(#clip-path)">
    <path id="Trazado_2885" data-name="Trazado 2885" d="M27.865,15.848A14.085,14.085,0,0,0,20.3,1.492,13.914,13.914,0,0,0,14.8,0V12.269H13.173V.012A13.531,13.531,0,0,0,9.614.681V12.269H.112A14.291,14.291,0,0,0,0,14.05a14.114,14.114,0,0,0,3.814,9.66A13.969,13.969,0,0,0,13.179,28.1V15.848H14.8V28.1a13.917,13.917,0,0,0,8.146-3.24,14.086,14.086,0,0,0,4.635-7.475H23.82a10.394,10.394,0,0,1-5.444,6.12V15.848ZM18.376,4.6a10.437,10.437,0,0,1,5.482,6.244c.081.238.143.475.2.718s.1.469.144.706H18.376ZM9.614,23.515a10.323,10.323,0,0,1-3.485-2.66A9.816,9.816,0,0,1,5.264,19.7l-.093-.15a10.483,10.483,0,0,1-1.4-3.7H9.614Z" transform="translate(0 0)" fill="#ccc" fill-rule="evenodd"/>
    <path id="Trazado_2886" data-name="Trazado 2886" d="M49.506,11.311a6.687,6.687,0,0,0-1.417-2.2,6.387,6.387,0,0,0-2.2-1.421,7.735,7.735,0,0,0-2.864-.519H37.78V21.054h5.242a7.9,7.9,0,0,0,2.864-.508,6.331,6.331,0,0,0,3.629-3.631,7.364,7.364,0,0,0,.5-2.791,7.442,7.442,0,0,0-.507-2.812m-2.43,4.856a4.192,4.192,0,0,1-.869,1.536,3.728,3.728,0,0,1-1.365.965,4.755,4.755,0,0,1-1.82.332H40.365V9.236h2.668a4.668,4.668,0,0,1,1.81.332,3.893,3.893,0,0,1,1.375.965,4.192,4.192,0,0,1,.869,1.536,6.526,6.526,0,0,1,.3,2.044,6.269,6.269,0,0,1-.31,2.054" transform="translate(1.285 0.27)" fill="#ccc" fill-rule="evenodd"/>
    <path id="Trazado_2887" data-name="Trazado 2887" d="M58.061,13.079V9.235l6.119-.009V7.173H55.487V21.048H64.18v-2.06H58.061V15.067h4.824V13.081Z" transform="translate(1.887 0.27)" fill="#ccc" fill-rule="evenodd"/>
    <path id="Trazado_2888" data-name="Trazado 2888" d="M88.4,9.235v3.843h4.824v1.986H88.4v3.922H94.52v2.062H85.827V7.174H94.52V9.228Z" transform="translate(2.918 0.27)" fill="#ccc" fill-rule="evenodd"/>
    <path id="Trazado_2889" data-name="Trazado 2889" d="M107.431,15.918a3.276,3.276,0,0,0-.383-.467,2.923,2.923,0,0,0-.465-.332,4.488,4.488,0,0,0,1.292-.612,3.754,3.754,0,0,0,.962-.892,3.681,3.681,0,0,0,.589-1.131,4.408,4.408,0,0,0-.1-2.936,3.147,3.147,0,0,0-.951-1.255,4.6,4.6,0,0,0-1.634-.83,8.962,8.962,0,0,0-2.409-.291H100.11V21.054h2.575V15.638h1.1a1.183,1.183,0,0,1,.569.1,1.013,1.013,0,0,1,.362.363l2.9,4.43a1.036,1.036,0,0,0,.951.519v-.01h2.316ZM105.549,13.6a4.053,4.053,0,0,1-1.272.176h-1.592v-4.6h1.634a3.289,3.289,0,0,1,2.109.56,1.934,1.934,0,0,1,.693,1.619,2.529,2.529,0,0,1-.165.965,1.965,1.965,0,0,1-.527.768,2.413,2.413,0,0,1-.879.508" transform="translate(3.404 0.27)" fill="#ccc" fill-rule="evenodd"/>
    <path id="Trazado_2890" data-name="Trazado 2890" d="M124.978,9.3H120.82V21.048h-2.562V9.3H114.1V7.173h10.871Z" transform="translate(3.879 0.27)" fill="#ccc" fill-rule="evenodd"/>
    <path id="Trazado_2891" data-name="Trazado 2891" d="M142.561,12.188a6.751,6.751,0,0,0-.662-1.712,6.434,6.434,0,0,0-2.43-2.511,7.089,7.089,0,0,0-1.7-.685,7.765,7.765,0,0,0-1.954-.249,7.5,7.5,0,0,0-2.854.54,6.479,6.479,0,0,0-2.2,1.473,6.771,6.771,0,0,0-1.427,2.252,8.181,8.181,0,0,0,0,5.655,6.727,6.727,0,0,0,1.427,2.241,6.507,6.507,0,0,0,2.2,1.484,7.988,7.988,0,0,0,5.718,0,6.32,6.32,0,0,0,2.192-1.484,6.513,6.513,0,0,0,1.406-2.241,7.8,7.8,0,0,0,.507-2.833,8.137,8.137,0,0,0-.227-1.93m-2.7,3.974a4.533,4.533,0,0,1-.869,1.536,3.949,3.949,0,0,1-1.365.965,5.116,5.116,0,0,1-3.64,0,3.854,3.854,0,0,1-1.365-.965,4.463,4.463,0,0,1-.879-1.536,7.093,7.093,0,0,1,0-4.1,4.369,4.369,0,0,1,.879-1.536,3.611,3.611,0,0,1,1.365-.965,5.007,5.007,0,0,1,3.64,0,3.611,3.611,0,0,1,1.365.965,4.389,4.389,0,0,1,.869,1.546,6.526,6.526,0,0,1,.3,2.044,6.526,6.526,0,0,1-.3,2.044" transform="translate(4.38 0.264)" fill="#ccc" fill-rule="evenodd"/>
    <path id="Trazado_2892" data-name="Trazado 2892" d="M73.156,9.282,72.112,7.5a.735.735,0,0,0-.262-.273.97.97,0,0,0-.462-.083H68.171l3.064,4.83Z" transform="translate(2.318 0.269)" fill="#ccc" fill-rule="evenodd"/>
    <path id="Trazado_2893" data-name="Trazado 2893" d="M81.267,7.148l-4.349,6.626,2.372,3.9,2.068,3.4H78.143a.8.8,0,0,1-.508-.154,1.151,1.151,0,0,1-.309-.364L75.434,17.25l-.379-.67-2.957,4.5H68.01L78.184,7.148Z" transform="translate(2.312 0.269)" fill="#ccc" fill-rule="evenodd"/>
  </g>
</svg>
