<svg id="firstsportz" xmlns="http://www.w3.org/2000/svg" xmlns:xlink="http://www.w3.org/1999/xlink" width="189.183" height="14.997" viewBox="0 0 189.183 14.997">
  <defs>
    <clipPath id="clip-path">
      <rect id="Rectángulo_1754" data-name="Rectángulo 1754" width="189.183" height="14.997" transform="translate(0 0)" fill="#ccc"/>
    </clipPath>
  </defs>
  <g id="Grupo_2497" data-name="Grupo 2497" clip-path="url(#clip-path)">
    <path id="Trazado_2874" data-name="Trazado 2874" d="M258.493,15.118H243.522c-.094-1.406.418-2.722.373-4.243h10.46a1,1,0,0,0,.333-1.055H244.1l1.171-9.6h14.89c.24,1.378-.294,2.695-.324,4.181H249.587c-.546.308-.472.6-.5,1.039h10.585l-1.177,9.677" transform="translate(-162.195 -0.148)" fill="#ccc"/>
    <path id="Trazado_2875" data-name="Trazado 2875" d="M408.884.116h15.049l-1.158,9.479c-1.049.319-2.115.015-3.328.237,1.276,1.848,2.884,3.33,4.361,5.185h-6.151l-4.509-5.132a27.737,27.737,0,0,1,.481-4.481h5.024c.39-.339.293-.606.272-.929h-6.2c-.434,3.522-.859,6.975-1.295,10.515h-4.357L408.884.116" transform="translate(-271.137 -0.077)" fill="#ccc"/>
    <path id="Trazado_2876" data-name="Trazado 2876" d="M354.292.081h15.042c-.611,5-1.212,9.919-1.822,14.906H352.456L354.292.081m10.154,4.365H358.12c-.213,2.09-.618,4.091-.687,6.227a61.779,61.779,0,0,0,6.243-.041l.77-6.186" transform="translate(-234.761 -0.054)" fill="#ccc"/>
    <path id="Trazado_2877" data-name="Trazado 2877" d="M517.784,4.473a21.2,21.2,0,0,1,.492-4.332h14.887a22.5,22.5,0,0,1-.271,3.041l-8.4,7.5h7.3c.237,1.534-.377,2.845-.276,4.31H516.47a11.119,11.119,0,0,1,.365-3.037l8.391-7.48Z" transform="translate(-344.006 -0.094)" fill="#ccc"/>
    <path id="Trazado_2878" data-name="Trazado 2878" d="M314.8.14c-.407,3.266-.8,6.394-1.2,9.617h-10.66c-.231,1.784-.449,3.472-.679,5.246h-4.342c.6-4.944,1.205-9.872,1.814-14.864Zm-4.959,4.349h-6.156a.746.746,0,0,0-.082.856h6.013c.258-.244.172-.476.224-.856" transform="translate(-198.437 -0.093)" fill="#ccc"/>
    <path id="Trazado_2879" data-name="Trazado 2879" d="M470.857,4.39H465.52c.189-1.507.359-2.861.533-4.255h14.958a27.983,27.983,0,0,1-.483,4.25h-5.266c-.459,3.6-.906,7.1-1.36,10.65h-4.34c.426-3.5.845-6.942,1.3-10.645" transform="translate(-310.069 -0.09)" fill="#ccc"/>
    <path id="Trazado_2880" data-name="Trazado 2880" d="M133.556.064H148.5a29.948,29.948,0,0,1-.418,4.256h-10.34c-.451.327-.324.617-.34,1h10.489c-.211,3.308-.751,6.442-1.117,9.649H131.746c.169-1.417.329-2.764.5-4.222h10.334a.927.927,0,0,0,.445-1.006H132.385L133.556.064" transform="translate(-87.752 -0.043)" fill="#ccc"/>
    <path id="Trazado_2881" data-name="Trazado 2881" d="M81.478,15H77.132c.612-4.984,1.213-9.878,1.825-14.859H94.016c-.4,3.228-.787,6.356-1.184,9.569h-3.45L93.9,14.946H87.734L83.1,9.653c.311-1.388.225-2.8.655-4.248h4.946c.45-.3.319-.6.354-.937H82.815Q82.145,9.755,81.478,15" transform="translate(-51.375 -0.095)" fill="#ccc"/>
    <path id="Trazado_2882" data-name="Trazado 2882" d="M4.354,15H0C.61,10.012,1.21,5.118,1.821.14H16.9a41.41,41.41,0,0,1-.666,4.255H5.876c-.345.334-.271.593-.168,1h10.6c-.406,1.5-.262,2.9-.728,4.33H5.039L4.354,15" transform="translate(0.001 -0.093)" fill="#ccc"/>
    <path id="Trazado_2883" data-name="Trazado 2883" d="M198.575,14.951a32.749,32.749,0,0,1-4.346-.013L195.5,4.319h-5.335a41.372,41.372,0,0,1,.626-4.286h14.952c-.176,1.432-.346,2.819-.529,4.307h-5.323l-1.317,10.611" transform="translate(-126.664 -0.022)" fill="#ccc"/>
    <path id="Trazado_2884" data-name="Trazado 2884" d="M56.4,0h4.365c-.611,4.984-1.213,9.893-1.823,14.866a34.866,34.866,0,0,1-4.374.129C55.18,9.953,55.78,5.044,56.4,0" transform="translate(-36.344 0)" fill="#ccc"/>
  </g>
</svg>
