<svg id="meaw" xmlns="http://www.w3.org/2000/svg" width="152.51" height="24.941" viewBox="0 0 152.51 24.941">
  <g id="Group_2135" data-name="Group 2135">
    <path id="Path_113" data-name="Path 113" d="M136.507-2387.2a5.814,5.814,0,0,0,4.053-1.337,1.622,1.622,0,0,0,.578-1.119,1.625,1.625,0,0,0-.4-1.2,1.8,1.8,0,0,0-2.354-.179,3.089,3.089,0,0,1-1.88.548,3.642,3.642,0,0,1-3.495-3.767,3.644,3.644,0,0,1,3.495-3.767,3.49,3.49,0,0,1,3.08,2h-3.8a1.656,1.656,0,0,0-1.669,1.641,1.656,1.656,0,0,0,1.669,1.642h5.917l.073,0a.348.348,0,0,0,.078-.006l.093-.013c.023-.005.047-.007.073-.012s.065-.015.1-.025l.061-.017c.034-.01.066-.023.1-.035l.051-.02c.034-.015.068-.031.1-.049.015-.006.029-.014.043-.021.034-.02.067-.039.1-.06l.036-.022c.034-.023.066-.047.1-.073l.03-.023c.032-.025.062-.054.092-.082l.025-.022c.03-.031.058-.062.085-.093l.021-.023c.027-.033.053-.067.077-.1l.018-.023c.025-.035.047-.073.069-.111l.014-.024c.021-.039.041-.08.059-.121,0-.007.007-.014.011-.022.018-.042.034-.085.048-.129a.083.083,0,0,1,.007-.021,1.373,1.373,0,0,0,.036-.137.034.034,0,0,1,.005-.021c.01-.048.017-.1.023-.146v-.019a1.361,1.361,0,0,0,.007-.146v-.055a6.979,6.979,0,0,0-6.833-6.885,6.953,6.953,0,0,0-6.834,7.05,6.953,6.953,0,0,0,6.834,7.052" transform="translate(-89.848 2401.691)" fill="#ccc" fill-rule="evenodd"/>
    <path id="Path_116" data-name="Path 116" d="M155.877-2394.523v.189c-.009.966-.053,3.871-.053,3.871a3.239,3.239,0,0,1-3.406,3.031l-3.231-.044c-.048,0-.1,0-.146,0-.073,0-.146,0-.215-.007h-.01a6.736,6.736,0,0,1-4.616-2.091,7.13,7.13,0,0,1-1.991-4.792v-.053a.973.973,0,0,1,.007-.146.121.121,0,0,0,0-.02c.006-.049.013-.1.022-.146a.073.073,0,0,1,.006-.02c.01-.046.022-.092.035-.137a.136.136,0,0,0,.007-.022q.022-.066.048-.13c0-.007.007-.015.012-.024.018-.039.038-.08.058-.122a.132.132,0,0,0,.015-.02,1.253,1.253,0,0,1,.069-.111.115.115,0,0,1,.017-.023c.024-.036.051-.071.079-.1s.069-.078.106-.115a.175.175,0,0,1,.026-.023.947.947,0,0,1,.091-.084l.031-.023.1-.073.036-.024.1-.058c.014-.009.028-.016.043-.023.033-.017.067-.033.1-.047.016-.008.035-.013.053-.021s.065-.025.1-.036a.491.491,0,0,0,.061-.016c.032-.008.064-.017.1-.023l.069-.015c.032,0,.063-.01.095-.012a.557.557,0,0,1,.078-.005c.023,0,.047-.006.073-.006h5.915a1.655,1.655,0,0,1,1.669,1.641,1.656,1.656,0,0,1-1.669,1.641h-3.8a3.5,3.5,0,0,0,3.08,2c.365,0,.822,0,1.116,0,2.1,0,2.357-.949,2.357-2.642,0-.334.023-.7.023-1.1v-.025a3.393,3.393,0,0,0-1-2.493,3.4,3.4,0,0,0-2.5-.989H144.59a1.657,1.657,0,0,1-1.669-1.644,1.657,1.657,0,0,1,1.669-1.64h4.447a6.815,6.815,0,0,1,5.616,2.848l.017.027a6.718,6.718,0,0,1,1.2,3.891" transform="translate(-87.032 2401.695)" fill="#ccc" fill-rule="evenodd"/>
    <path id="Path_376" data-name="Path 376" d="M151.931-2376.687a21.414,21.414,0,0,1-14.32-5,25.485,25.485,0,0,1-6.312-8.434c-1.913-3.913-2.954-6.469-3.2-7.1-.285-.724-.734-.941-1.086-.927-.247.008-.755.192-1.109.963l-3.234,7.172a4.559,4.559,0,0,1-4.152,2.752,4.586,4.586,0,0,1-4.153-2.752c-.025-.052-3.233-7.172-3.233-7.172a1.353,1.353,0,0,0-1.108-.963c-.3-.014-.8.192-1.08.917,0,0-2.943,8.058-3.261,8.822a4.335,4.335,0,0,1-4.152,2.75,4.966,4.966,0,0,1-4.153-2.75,1.68,1.68,0,0,1-.163-1.294,1.68,1.68,0,0,1,.812-1.021,1.741,1.741,0,0,1,2.354.638c.438.764.9.936,1.155.939a1.113,1.113,0,0,0,1.076-.822s3.221-8.8,3.261-8.893a4.545,4.545,0,0,1,4.152-2.751,4.623,4.623,0,0,1,4.153,2.751c.025.053,3.232,7.173,3.232,7.173.348.754.8.963,1.109.963s.762-.185,1.109-.963c0,0,3.206-7.119,3.233-7.173a4.673,4.673,0,0,1,4.153-2.751,4.535,4.535,0,0,1,4.152,2.751c.037.086,1.16,3.012,3.245,7.276a22.219,22.219,0,0,0,5.462,7.341,18.03,18.03,0,0,0,12.058,4.17,19.583,19.583,0,0,0,17.993-11.5c1.715-3.563,3.219-7.211,3.251-7.281a4.533,4.533,0,0,1,4.152-2.751,4.59,4.59,0,0,1,4.152,2.751c.037.091,3.261,8.817,3.261,8.817.3.823.839.917,1.08.917a1.379,1.379,0,0,0,1.109-.964s3.205-7.072,3.231-7.123a4.725,4.725,0,0,1,4.153-2.753,4.632,4.632,0,0,1,4.152,2.753c.026.051,3.232,7.123,3.232,7.123.328.73.752.961,1.11.964s.8-.191,1.081-.917c0,0,3.226-8.726,3.261-8.817a4.455,4.455,0,0,1,4.153-2.751,4.418,4.418,0,0,1,4.153,2.751c.038.091,3.261,8.817,3.261,8.817.3.823.839.917,1.081.917s.758-.16,1.11-.964c0,0,3.2-7.073,3.233-7.125a4.919,4.919,0,0,1,4.153-2.751,4.921,4.921,0,0,1,4.153,2.752c.029.051,3.232,7.123,3.232,7.123.419.869.862.965,1.11.965s.73-.069,1.082-.917c0,0,3.227-8.726,3.262-8.817a4.335,4.335,0,0,1,4.154-2.752,4.921,4.921,0,0,1,4.154,2.752,1.683,1.683,0,0,1,.162,1.293,1.682,1.682,0,0,1-.81,1.021,1.743,1.743,0,0,1-2.354-.638c-.438-.763-.715-.987-1.151-1.035-.341-.036-.828.18-1.081.919a93.249,93.249,0,0,1-3.263,8.888,4.877,4.877,0,0,1-4.153,2.751,4.415,4.415,0,0,1-4.153-2.751l-3.232-7.125c-.335-.781-.77-.961-1.11-.965-.292,0-.746.158-1.11.965l-3.233,7.125a4.538,4.538,0,0,1-4.153,2.751,4.51,4.51,0,0,1-4.152-2.75c-.04-.093-3.262-8.818-3.262-8.818a1.181,1.181,0,0,0-1.081-.916,1.246,1.246,0,0,0-1.081.916s-3.226,8.726-3.261,8.817a4.363,4.363,0,0,1-4.153,2.751,4.507,4.507,0,0,1-4.153-2.751l-3.231-7.125c-.327-.786-.794-.965-1.11-.965-.3,0-.778.2-1.109.965,0,0-3.209,7.07-3.232,7.125a4.491,4.491,0,0,1-4.152,2.751,4.285,4.285,0,0,1-4.153-2.751c-.033-.093-3.261-8.817-3.261-8.817a1.123,1.123,0,0,0-1.08-.916c-.244.011-.724.1-1.1.943q-1.505,3.575-3.185,7.074a25.351,25.351,0,0,1-6.514,8.359,22.32,22.32,0,0,1-14.6,5.084" transform="translate(-97.154 2401.62)" fill="#ccc" fill-rule="evenodd"/>
  </g>
</svg>
