<svg xmlns="http://www.w3.org/2000/svg" width="173.02" height="20.465" viewBox="0 0 173.02 20.465">
	<path id="sportskeeda" fill="#ccc" d="M17.891,4.726l-.328,1.347a.4.4,0,0,1-.4.328H9.151q-.8,0-.91.473l-.109.437q-.073.437.655.437h5.207q2.549,0,2.549,1.894A4.393,4.393,0,0,1,16.4,10.7l-.546,2.221a3.969,3.969,0,0,1-1.457,2.221,4.271,4.271,0,0,1-2.695.874H.958a.4.4,0,0,1-.364-.51l.328-1.347a.4.4,0,0,1,.4-.291H9.37a.781.781,0,0,0,.874-.583l.109-.364q.146-.583-.619-.583H4.381q-2.4,0-2.4-1.894a4.115,4.115,0,0,1,.146-1.02L2.67,7.166A3.467,3.467,0,0,1,4.235,5.054,4.986,4.986,0,0,1,7,4.253H17.49a.4.4,0,0,1,.4.473Zm15.8,3.059-1.165,4.734a4.193,4.193,0,0,1-4.479,3.5H23.28a1.088,1.088,0,0,1-1.2-1.165h-.073l-1.311,5.426a.255.255,0,0,1-.255.182H15.05a.255.255,0,0,1-.255-.291L18.728,4.435a.255.255,0,0,1,.218-.182h5.062a.255.255,0,0,1,.255.291.25.25,0,0,0,.4.255,1.851,1.851,0,0,1,1.2-.546h5.1q2.877,0,2.877,2.4A4.953,4.953,0,0,1,33.695,7.785Zm-5.79-.4a1.383,1.383,0,0,0,.036-.328q0-.51-.692-.51H24.882a.963.963,0,0,0-.983.838l-1.384,5.462a1.165,1.165,0,0,0-.036.328q0,.546.619.546h2.367a1.013,1.013,0,0,0,1.056-.874Zm22.322.255-1.2,4.952A5.014,5.014,0,0,1,47.714,15.1a3.977,3.977,0,0,1-2.8.91h-9.5q-2.622,0-2.622-2A5.791,5.791,0,0,1,33,12.592l1.238-4.952a4.812,4.812,0,0,1,1.275-2.513,4.17,4.17,0,0,1,2.8-.874H47.86q2.585,0,2.585,2A5.379,5.379,0,0,1,50.227,7.639ZM44.4,7.421a1.384,1.384,0,0,0,.073-.328q0-.546-.692-.546H41.232a.994.994,0,0,0-1.02.874L38.865,12.81a1.456,1.456,0,0,0-.073.364q0,.546.655.546H42a1.024,1.024,0,0,0,1.056-.91Zm18.681-2.4-.51,2.039a.619.619,0,0,1-.583.473H59.476a4.572,4.572,0,0,0-2.112.364,2,2,0,0,0-.874,1.457l-1.566,6.19a.619.619,0,0,1-.583.473H49.717a.619.619,0,0,1-.619-.765L51.72,4.726a.619.619,0,0,1,.619-.473h4.188a.619.619,0,0,1,.583.765l-.291,1.129h.073a4.086,4.086,0,0,1,1.457-1.493,4.412,4.412,0,0,1,2.039-.4h2.076a.619.619,0,0,1,.619.765Zm13.328,0-.255,1.056a.619.619,0,0,1-.619.473H71.82a.619.619,0,0,0-.619.473l-1.42,5.826a1.457,1.457,0,0,0-.073.328q0,.546.8.546h3.532a.619.619,0,0,1,.619.765l-.255,1.056a.619.619,0,0,1-.619.473H66.249a2.546,2.546,0,0,1-1.821-.619,2.241,2.241,0,0,1-.655-1.711,4.406,4.406,0,0,1,.109-1.02l1.347-5.316a.619.619,0,0,0-.619-.8h-.874a.619.619,0,0,1-.619-.8l.255-1.02a.619.619,0,0,1,.619-.473h1.493a.619.619,0,0,0,.619-.473l.4-1.6a.619.619,0,0,1,.619-.473h4.588a.619.619,0,0,1,.619.765l-.218.983a.619.619,0,0,0,.583.8h3.1a.619.619,0,0,1,.619.765ZM92.249,4.8l-.291,1.238a.473.473,0,0,1-.437.364H83.546q-.8,0-.91.473l-.109.437q-.109.437.655.437h5.207q2.549,0,2.549,1.894a4.392,4.392,0,0,1-.146,1.056l-.546,2.221a3.969,3.969,0,0,1-1.493,2.221,4.216,4.216,0,0,1-2.658.874H75.425a.473.473,0,0,1-.437-.583l.291-1.238a.473.473,0,0,1,.437-.328h8.048a.781.781,0,0,0,.874-.583l.109-.364q.146-.583-.619-.583H78.776q-2.44,0-2.44-1.894a4.115,4.115,0,0,1,.146-1.02l.583-2.258A3.294,3.294,0,0,1,78.63,5.054a5.1,5.1,0,0,1,2.767-.8H91.812a.473.473,0,0,1,.437.546Zm14.311.146-2.84,1.894a.4.4,0,0,0-.182.437l2.731,8.23a.4.4,0,0,1-.364.51H99.9a.4.4,0,0,1-.364-.291l-1.165-4.661a.4.4,0,0,0-.583-.218l-.619.4a.4.4,0,0,0-.146.218l-1.092,4.26a.4.4,0,0,1-.364.291h-5.1a.4.4,0,0,1-.364-.473L93.888.284a.4.4,0,0,1,.4-.291h5.1a.4.4,0,0,1,.364.473L98,7.385a.4.4,0,0,0,.619.4l5.171-3.459a.4.4,0,0,1,.218-.073h2.331A.379.379,0,0,1,106.56,4.945ZM123.747,7.6,122.8,11.39h-9.868l-.291,1.129a1.857,1.857,0,0,0-.036.4q0,.8.947.8h8.412l-.546,2.294H109.145q-2.622,0-2.622-2a6.316,6.316,0,0,1,.218-1.493l1.2-4.916a4.855,4.855,0,0,1,1.347-2.513,4.142,4.142,0,0,1,2.767-.838h9.249q2.658,0,2.658,2A4.987,4.987,0,0,1,123.747,7.6Zm-5.717-.146a2.149,2.149,0,0,0,.036-.4q0-.51-.728-.51h-2.331a1.1,1.1,0,0,0-1.129.91l-.4,1.639h4.151Zm22.5.146-.947,3.787h-9.868l-.291,1.129a1.858,1.858,0,0,0-.036.4q0,.8.983.8h8.412l-.583,2.294H125.932q-2.622,0-2.622-2a6.316,6.316,0,0,1,.218-1.493L124.767,7.6a4.664,4.664,0,0,1,1.311-2.513,4.231,4.231,0,0,1,2.768-.838h9.249q2.658,0,2.658,2A4.987,4.987,0,0,1,140.534,7.6Zm-5.717-.146a2.147,2.147,0,0,0,.036-.4q0-.51-.728-.51h-2.331a1.043,1.043,0,0,0-1.092.91L130.3,9.1h4.115ZM158.705.284l-3.9,15.549a.255.255,0,0,1-.218.182h-5.244a.255.255,0,0,1-.255-.291.255.255,0,0,0-.364-.218,1.693,1.693,0,0,1-1.056.51h-5.134q-2.877,0-2.877-2.4a4.951,4.951,0,0,1,.146-1.165l1.2-4.7a4.193,4.193,0,0,1,4.479-3.5h4.734a1.09,1.09,0,0,1,1.238,1.129h.036L152.806.174a.255.255,0,0,1,.255-.182h5.389a.255.255,0,0,1,.255.291Zm-7.683,7.1a1.166,1.166,0,0,0,.036-.328q0-.51-.655-.51h-2.33a1,1,0,0,0-1.056.838l-1.384,5.462a1.421,1.421,0,0,0-.073.328q0,.546.728.546h2.331a.994.994,0,0,0,1.02-.874Zm22.322,1.056-1.857,7.392a.218.218,0,0,1-.182.182H166.1a.218.218,0,0,1-.219-.255l.255-1.056H166.1a2.486,2.486,0,0,1-2.549,1.311h-4.443q-2.731,0-2.731-2a5.11,5.11,0,0,1,.255-1.457l.255-1.092a4.982,4.982,0,0,1,1.42-2.622A4.057,4.057,0,0,1,161,8.04h6.373a.219.219,0,0,0,.182-.146l.182-.583a.836.836,0,0,0,0-.218q0-.546-.728-.546h-8.084a.219.219,0,0,1-.182-.255l.473-1.894a.219.219,0,0,1,.182-.146H170.5q3.1,0,3.1,2.476A6.956,6.956,0,0,1,173.344,8.441ZM166.9,10.589a.219.219,0,0,0-.219-.255h-2.33a1.636,1.636,0,0,0-1.056.255,1.543,1.543,0,0,0-.437.728l-.4,1.42a1.783,1.783,0,0,0-.036.4q0,.583,1.02.583h1.6a1.226,1.226,0,0,0,.947-.291,3.024,3.024,0,0,0,.473-1.165Z" transform="translate(-0.579 0.008)" />
</svg>
