<svg id="thesportsrush" xmlns="http://www.w3.org/2000/svg" width="210.498" height="15.01" viewBox="0 0 210.498 15.01">
  <path id="Trazado_2855" data-name="Trazado 2855" d="M172.1,10.192h-6.82V7.473h11.146v2.72Zm-67.549,6.017V10.19h2.485v3.4H115.7v8.882h-11.15V19.762h8.665V16.314h-8.666v-.105Zm78.4-6.017h-2.485V7.473H191.61v2.72Zm-45.544,0v9.571h6.178V10.191H137.4Zm-2.484-2.72h11.146v15.01H134.92Zm17.668,9.781H150.1v5.228h2.488V17.255Z" transform="translate(-52.018 -7.473)" fill="#ccc"/>
  <path id="Trazado_2856" data-name="Trazado 2856" d="M129.5,6h9.44l1.706,2.136V12.5l-1.563,1.856,1.563,1.96v4.7h-2.485V15.781H129.5Zm8.661,2.72h-6.173v4.342h6.173Zm-36.54,0v4.342H107.8V8.72Zm8.661-2.667v9.729h-8.661V21.01H99.132V6h11.146v.053Zm58.05,8.162h-8.666V8.091h2.485v3.4h8.661v8.882H159.663V17.725l1.355-.062h7.312Zm-16.83-5.5h-2.485v12.29H151.5ZM83.95,6H95.1V8.72H83.95Zm155.2,8.83H232.3V12.107h6.851V6h2.759V21.005h-2.759V14.83Zm-57.361.951h-2.759v5.228h2.759V15.782Zm26.444,5.224H195.875V18.29h9.607V6h2.755Zm14.082-2.714V14.844h-9.607V8.721h2.75v3.4h9.612v8.882H212.711V18.318l1.5-.027Z" transform="translate(-31.415 -6)" fill="#ccc"/>
  <path id="Trazado_2857" data-name="Trazado 2857" d="M206.214,6h-2.755V18.29h2.755Zm33.671,8.83v6.176h-2.759V6h2.759v8.829Zm-43.659-1.768V8.72H189.38v4.342Zm0,7.947V15.782H186.62V6h10.468l1.9,2.136V12.5l-1.737,1.856,1.737,1.96v4.7h-2.759ZM232.658,6V8.72H220.3V6ZM39,8.721V6H51.205V8.721Zm26.106,3.385V6H67.82V21.008H65.106V14.826H58.343V12.105ZM84.44,6V8.721H74.956v3.371h5.809v2.714H72.235V6ZM46.468,8.722H43.747V21.01h2.721Z" transform="translate(-39 -6)" fill="#ccc"/>
  <path id="Trazado_2858" data-name="Trazado 2858" d="M55.943,6V21.009h-2.72V6h2.721Zm26.1,12.289v2.72h-12.2v-6.2H72.56v3.483h9.484Z" transform="translate(-36.6 -6)" fill="#ccc"/>
</svg>
